<svg viewBox="-0.6 0.0 421.2 500.0">
   <g>
      <g clipPath="url(#__id439_s1u824znn)">
         <path
            d="m142.7 213.95c-12.08-12.52-25.47-24.07-40.8-32.45-0.79-0.43-1.42 0.69-0.7 1.2 14.22 9.94 28.15 20.01 40.7 32.05 0.53 0.51 1.31-0.27 0.8-0.8zm-4.92 8.96c-26.78-2.78-53.866-7.07-80.831-7.31-1.101-0.01-1.414 1.79-0.265 1.98 26.687 4.4 54.156 4.85 81.096 6.71 0.9 0.07 0.88-1.29 0-1.38zm32.95-49.39c-9.2-25.71-20.52-50.58-31.3-75.653-0.64-1.469-2.93-0.406-2.54 1.067 7.07 26.546 17.09 52.246 32.34 75.216 0.49 0.73 1.83 0.29 1.5-0.63zm18.02-4.75c-3.88-23.97-4.69-48.36-3.89-72.594 0.07-2.074-2.91-1.957-3.15 0-2.94 24.694-1.27 49.204 3.52 73.564 0.45 2.33 3.89 1.31 3.52-0.97zm43.92 7.34c-4.85-1.24 0.47-17.76 1.51-20.9 2.36-7.04 5.7-13.76 8.94-20.43 5.27-10.84 10.68-21.59 16.53-32.13 12.03-21.685 26.72-39.759 44.1-57.334 1.21-1.218-0.32-3.226-1.82-2.371-24.23 13.836-39.72 41.418-51.61 65.655-6.37 12.97-13.13 26.24-17.55 40.02-1.25 3.9-8.56 28.05-0.18 28.11 0.35 0 0.43-0.53 0.08-0.62zm3.32 12.88c28.16-30.37 62.83-54.21 100.85-70.58 0.51-0.22 0.14-1.13-0.39-0.92-38.95 15.35-73.26 39.61-101.44 70.52-0.6 0.66 0.37 1.64 0.98 0.98zm27.06 14.75c7.07-8.24 17.37-14.71 26.44-20.58 8.55-5.54 17.43-10.55 26.58-15 19.14-9.3 39.48-16.26 60.05-21.6 1.84-0.47 1.04-3.1-0.76-2.79-21.14 3.62-41.22 10.65-60.25 20.51-9.37 4.86-18.43 10.31-27.12 16.31-9.26 6.41-17.51 14.49-26.85 20.68-1.98 1.32 0.48 4.14 1.91 2.47zm1.9 30.72c38.42 16.26 73.08 39.37 104.16 67.1 0.54 0.48 1.33-0.29 0.8-0.8-30.05-28.99-66.14-51.1-104.86-66.53-0.14-0.05-0.23 0.18-0.1 0.23zm-30.72 1.39c30.3 36.45 51.02 80.75 66.77 125.1 0.24 0.67 1.29 0.41 1.09-0.31-12.96-46.7-37.94-87.19-67.76-124.88-0.06-0.07-0.15 0.03-0.1 0.09zm-19.88 110.44c4.79 43.62 11.46 86.81 21.23 129.6 0.17 0.72 1.22 0.41 1.09-0.3-8.01-42.91-15.51-86.02-21.32-129.3-0.08-0.63-1.08-0.65-1 0zm-27.27-87.53c-10.12 42.26-16.37 85.39-16.53 128.88-0.01 1.06 1.58 1.05 1.63 0 2.14-43.23 6.57-86.33 15.39-128.75 0.06-0.31-0.41-0.45-0.49-0.13zm-16.22-9.09c-15.25 18.02-26.8 39.05-36.52 60.49-9.9 21.84-17.11 44.28-20.93 67.97-0.27 1.64 2.08 2.38 2.54 0.7 6.34-22.77 13.72-45.56 23.07-67.29 9.19-21.34 21.02-41.19 32.63-61.26 0.28-0.48-0.41-1.06-0.79-0.61zm-45.9-35.86c-33.312-18.38-71.612-31.51-109.96-31.86-1.754-0.02-1.629 2.43 0 2.64 38.082 5.07 74.547 13.31 109.07 30.74 1.01 0.51 1.89-0.97 0.89-1.52zm43.85 7.01c-26.78-28.76-50.49-61.06-73.658-92.75-1.125-1.53-3.582-0.21-2.609 1.53 19.867 35.37 45.657 64.7 74.937 92.55 0.88 0.84 2.16-0.44 1.33-1.33zm46.33-67.39c2.36-21.48 7.5-42.57 14.54-62.981 6.86-19.926 15.76-39.066 22.72-58.949 0.69-1.957-2.36-3.215-3.33-1.406-20.02 36.992-36.9 80.686-35.32 123.34 0.04 0.91 1.29 0.87 1.39 0zm-58.47 81.8c-33.81 11.43-63.459 33.72-84.9 62.1-0.516 0.68 0.621 1.55 1.187 0.92 23.523-26.61 51.963-47.2 83.953-62.44 0.32-0.15 0.09-0.69-0.24-0.58zm120.28-14.75c26.59 1.55 52.82 5.47 79.31 7.83 0.91 0.08 1.12-1.44 0.21-1.61-25.99-4.82-53.15-5.67-79.52-6.34-0.08 0-0.07 0.12 0 0.12zm-48.67 9.51c24.52-1.26 48.13 3.07 71.26 11.06 22.22 7.66 43.56 18.41 66.58 23.52 1.86 0.41 2.48-2.12 0.77-2.79-23.02-9.08-46.13-18.58-69.73-26.06-22.12-7.02-45.99-12.02-69.01-6.72-0.55 0.13-0.44 1.02 0.13 0.99zm-49.3-16.77c-15.96-37.22-36.68-72.22-61.27-104.38-1.05-1.38-3.38-0.14-2.39 1.39 22.01 33.86 42.45 68.65 61.7 104.13 0.71 1.32 2.52 0.16 1.96-1.14zm-12.03 11.08c-13.37-13.1-26.74-26.17-40.34-39.02-13.55-12.81-26.715-26.39-41.161-38.2-0.992-0.81-2.308 0.45-1.422 1.42 12.524 13.82 26.763 26.25 40.243 39.12 13.55 12.92 27.3 25.61 41.07 38.28 1.07 0.99 2.65-0.58 1.61-1.6zm-23.59 4.21c-34.2-3.86-68.255-1.97-101.67 6.31-1.034 0.26-0.588 1.78 0.435 1.58 33.281-6.25 67.475-8.33 101.24-5.5 1.55 0.13 1.5-2.22 0-2.39zm24.07 13.62c-22.91 10.03-39.75 31.28-54.76 50.59-15.42 19.85-28.94 41.21-40.408 63.57-0.114 0.22 0.207 0.41 0.324 0.19 11.781-22.11 25.59-42.96 41.594-62.25 15.58-18.77 32.95-38.21 53.76-51.23 0.56-0.35 0.08-1.12-0.51-0.87zm16.6 9.73c-25.62 41.55-38.69 92.05-35.5 140.82 0.07 1.03 1.63 1.06 1.63 0 0.36-49.47 11.55-96.59 34.41-140.5 0.19-0.36-0.33-0.66-0.54-0.32zm55.61-30.15c11.89-13.78 23-27.85 36.52-40.17 13.96-12.73 29.48-23 45.25-33.29 1.23-0.8 0.17-2.59-1.14-1.96-16.74 8.07-31.92 19.69-45.65 32.15-13.55 12.3-27.02 26.39-36.07 42.43-0.37 0.67 0.56 1.45 1.09 0.84zm34.15-10.86c23.34-9.06 47.34-16.33 71.84-21.56 24.49-5.24 49.29-7.67 74.05-11.15 1.44-0.2 1.03-2.43-0.34-2.47-24.69-0.68-49.72 3.47-73.74 8.81-24.87 5.52-49.21 13.14-72.85 22.61-2.3 0.92-1.32 4.68 1.04 3.76zm-38.03 25.67c14.85 1.05 28.41 10.56 40.53 18.52 11.76 7.72 23.03 16.26 33.62 25.51 20.71 18.09 39.13 39.25 54.74 61.85 0.69 0.99 2.28 0.1 1.64-0.95-15.37-25.24-34.56-47.25-57.16-66.29-10.72-9.03-22.09-17.25-34.04-24.57-11.99-7.36-24.91-15.59-39.33-16.34-1.46-0.08-1.44 2.16 0 2.27zm-7.72 14.28c23.15 38.06 41.01 78.79 56.34 120.54 0.41 1.12 2.16 0.69 1.82-0.5-12.31-43.03-32.24-83.46-56.2-121.18-0.78-1.22-2.72-0.11-1.96 1.14zm-6.43 17.77c13.8 76.98 27.87 154.21 45.23 230.48 0.38 1.68 2.83 0.94 2.55-0.71-13.25-77.04-29.89-153.73-46.69-230.07-0.16-0.72-1.22-0.41-1.09 0.3zm-15.61-11.47c-9.37 13.28-12.1 29.26-13.6 45.12-1.86 19.6-2.03 39.47-1.57 59.14 0.9 38.35 4 78.93 15.32 115.76 0.61 1.99 3.31 1.12 3.03-0.83-2.74-19.02-6.68-37.84-9.13-56.91-2.37-18.39-3.98-36.9-4.75-55.43-0.74-18.11-0.63-36.22 0.21-54.32 0.83-17.98 1.54-36.3 11.47-51.96 0.4-0.62-0.57-1.15-0.98-0.57zm-9.28-36.95c0.23-60 3.78-119.74 6.39-179.65 0.08-1.91-2.66-1.781-2.9 0.004-7.93 59.293-8.05 120.02-4.5 179.65 0.04 0.64 1 0.65 1.01 0zm18.86 1.12c0.38 1.74-2.28 2.47-2.67 0.73-4.29-19.28-1.39-38.71 3.85-57.51 5.42-19.41 12.43-38.47 19.85-57.2 7.15-18.028 15-35.782 23.54-53.196 8.98-18.313 18.3-36.809 30.02-53.539 0.88-1.2542 2.77-0.17609 2.07 1.2067-8.72 17.16-18.6 33.699-27.25 50.902-8.77 17.418-16.85 35.184-24.19 53.246-7.26 17.89-14.03 36.07-19.64 54.54-6 19.74-10.02 40.33-5.58 60.82"
            fill="#e977a6"
            ></path>
      </g>
      <g>
         <path
            d="m119.25 209.2c-1.12 0-1.96-0.93-2.01-2.02-0.05-1.08 0.96-2.01 2.01-2.01 1.13 0 1.97 0.92 2.02 2.01s-0.96 2.02-2.02 2.02zm-2.32 43.26c-1.59 0-1.59-2.47 0-2.47s1.59 2.47 0 2.47zm11.91-17.58c-0.51-0.99 0.42-2.12 1.49-1.7 0.96 0.39 0.98 2.05-0.14 2.25-0.14 0.02-0.28 0.05-0.42 0.07-0.29 0.05-0.63-0.02-0.78-0.31-0.05-0.1-0.1-0.21-0.15-0.31zm-11.54 2.03c-1.26-0.11-2.05-1.6-1.07-2.58 0.99-0.99 2.47-0.19 2.58 1.06 0.01 0.05 0.01 0.1 0.01 0.15 0.06 0.69-0.68 1.44-1.38 1.38-0.05-0.01-0.09-0.01-0.14-0.01zm-6.14 11.26c-1.71 0-1.71-2.65 0-2.65 1.7 0 1.7 2.65 0 2.65zm7.95 32.38c-1.14 0-1.14-1.77 0-1.77s1.14 1.77 0 1.77zm7.66-13.09c-0.34-0.66 0.07-1.51 0.87-1.51 0.79 0 1.2 0.85 0.86 1.51-0.03 0.08-0.07 0.15-0.11 0.22-0.28 0.58-1.23 0.58-1.51 0-0.04-0.07-0.08-0.14-0.11-0.22zm13.52 8.64c-0.74 0-0.74-1.13 0-1.13 0.73 0 0.73 1.13 0 1.13zm-11.99 10.38c0.78 0.38 0.84 1.51 0.27 2.08-0.61 0.6-1.65 0.46-2.08-0.27-0.38-0.66-0.11-1.48 0.54-1.84 0.44-0.24 0.84-0.18 1.27 0.03zm22.53 16.38c1.63-0.39 1.62 2.32 0 1.94-0.04-0.01-0.09-0.02-0.13-0.03-0.93-0.22-0.93-1.67 0-1.88 0.04-0.01 0.09-0.03 0.13-0.03zm6.69-12.09c-0.81 0-0.81-1.26 0-1.26s0.81 1.26 0 1.26zm45.25 27.84c-1.06 0-1.06-1.64 0-1.64 1.05 0 1.05 1.64 0 1.64zm5.03 8.08c-2.11 0-2.11-3.27 0-3.27s2.1 3.27 0 3.27zm-1.12-31.32c-1.7 0-1.7-2.64 0-2.64s1.7 2.64 0 2.64zm-0.28 11.24c-2.51 0-2.51-3.9 0-3.9s2.51 3.9 0 3.9zm81.98-10.89c-1.79 0-1.79-2.78 0-2.78s1.78 2.78 0 2.78zm0.42-10.96c-1.71 0-1.7-2.65 0-2.65s1.7 2.65 0 2.65zm-11.18-0.98c-3.32 0-3.32-5.16 0-5.16 3.33 0 3.33 5.16 0 5.16zm1.4-10.93c-2.19 0-2.18-3.4 0-3.4 2.19 0 2.19 3.4 0 3.4zm-11.17-12.28c-1.59 0-2.76-1.3-2.83-2.83s1.35-2.83 2.83-2.83c1.59 0 2.76 1.29 2.83 2.83 0.07 1.53-1.35 2.83-2.83 2.83zm-56.98-131.12c-0.98 0-0.97-1.51 0-1.51s0.97 1.51 0 1.51zm-4.19 10.28c-1.62 0-1.62-2.52 0-2.52s1.62 2.52 0 2.52zm2.23 7.67c-1.78 0-1.78-2.77 0-2.77 1.79 0 1.79 2.77 0 2.77zm-4.19 8.51c-2.67 0-2.67-4.15 0-4.15 2.68 0 2.68 4.15 0 4.15zm-16.36 61.57c0.09 0.23 0.17 0.45 0.26 0.67-0.71-0.38-1.41-0.75-2.12-1.12-1.55-3.46-3.07-6.94-4.82-10.28-1.06-4.43-2.15-8.86-3.47-13.25 2.66 8.27 6.2 16.22 10.15 23.98zm32.6 6.61h0.01-0.01zm74.42-7.88c-13.72 0.2-27.41 1.52-40.97 3.66-3.48 0.55-7.26 0.98-11.07 1.55 2.57-0.98 5.1-2.06 7.59-3.23 7.74-2.14 15.49-4.26 23.2-6.53 0.87-0.26 0.5-1.48-0.36-1.34-4.42 0.73-8.81 1.63-13.18 2.66 0.15-0.09 0.3-0.17 0.45-0.26 0.77-0.49 0.09-1.54-0.7-1.2-3.16 1.36-6.32 2.69-9.48 4.01-3.74 1.07-7.45 2.23-11.15 3.46 3.86-2.44 7.66-4.97 11.36-7.65 0.97-0.7 0.13-2.24-0.95-1.63-7.58 4.26-14.95 8.89-22.32 13.5-0.9 0.34-1.78 0.68-2.68 1.02 2.56-4.5 5.51-8.73 8.78-12.72 9.47-3.19 19.08-5.34 28.65-8.17 0.94-0.28 0.77-1.73-0.24-1.73-8.78 0-17.62 3.41-25.81 6.83 0.25-0.28 0.5-0.55 0.75-0.83 9.95-8.38 20.96-15.62 31.51-23.59 0.88-0.66 0.14-2.07-0.88-1.52-3.24 1.76-6.46 3.62-9.64 5.57 2.43-2.21 4.8-4.48 7-6.91 1.21-1.33-0.33-3.57-1.98-2.57-6.37 3.91-12.55 8.73-18.28 14.18-2.24 1.58-4.45 3.21-6.62 4.88 5.01-7.31 10.51-14.42 16.16-21.2 0.61-0.74-0.35-1.74-1.07-1.07-8.91 8.27-18.16 18.78-24.79 30.19-1.23 1.05-2.45 2.1-3.66 3.17 0.72-1.4 1.43-2.76 2.09-4.08 3.73-7.54 7.9-14.74 12.71-21.64 0.16-0.25 0.14-0.5 0.01-0.72 0.75-0.85 1.5-1.7 2.26-2.55 0.55-0.61-0.27-1.39-0.89-0.89-3.63 2.94-6.91 6.2-9.91 9.71-0.08-0.2-0.21-0.39-0.38-0.53 2.11-3.89 4.27-7.76 6.52-11.58 0.38-0.64-0.56-1.16-0.98-0.57-3.7 5.21-7.25 10.5-10.58 15.93-0.33 0.39-0.67 0.79-0.99 1.19 1.38-4.14 2.64-8.34 3.69-12.68 0.47-1.98-2.57-3.5-3.46-1.46-2.68 6.16-5.54 12.15-8.21 18.24 2.36-11.35 6.13-22.29 9.51-33.36 0.38-1.25-1.4-1.93-2.07-0.87-6.93 11-10.8 23.69-13.05 36.41-0.73 4.1-1.31 8.24-1.65 12.4-0.48 1.05-0.95 2.11-1.39 3.19-0.09-2.04-0.03-4.03-0.02-5.58 0-0.03 0.01-0.07 0.02-0.1 1.43-8.13 3.18-16.2 4.66-24.32 0.21-1.18-1.47-1.68-1.82-0.5-1.02 3.4-1.96 6.81-2.83 10.23 0-0.86 0.01-1.72 0.01-2.58-0.08-10.76-0.41-21.5-0.29-32.26 0.01-1.16-1.65-1.11-1.76 0-0.38 3.51-2.14 17.14-2.84 30.96-0.22-2.05-0.44-4.09-0.69-6.13-0.25-2.06-3.11-2.15-3.27 0-0.09 1.2-0.16 2.41-0.22 3.61-0.76-0.09-1.51 0.25-1.66 1.24-1.18 8.02-0.58 16.17 0.51 24.17 0.37 2.67 0.62 5.76 1.43 8.54-0.01 0.18-0.02 0.36-0.02 0.54-0.1 0.18-0.19 0.37-0.28 0.56-0.13 0.15-0.26 0.29-0.38 0.44-0.32-0.18-0.64-0.36-0.95-0.53-0.56-2.78-1.09-5.56-1.53-8.36-1.61-10.01-2.96-20.1-3.91-30.2-0.13-1.43-2.21-1.48-2.26 0-0.13 3.69-0.11 7.34 0.01 10.98-0.68-5.9-1.34-11.81-2.21-17.72-0.12-0.84-0.73-1.11-1.36-1.02-0.44-4.51-0.96-9.01-1.61-13.48-0.2-1.33-2.15-0.9-2.23 0.3-0.76 11.13 0.07 22.52 1.78 33.72-0.19 0.04-0.35 0.11-0.5 0.21-2.36-5.57-4.71-11.15-7.18-16.69-0.46-1.03-1.93-0.26-1.73 0.73 0.75 3.73 1.72 7.39 2.85 11-0.44-1.25-2.58-1.09-2.45 0.37 0.19 2.32 0.48 4.62 0.82 6.91-0.33 0.07-0.61 0.23-0.81 0.46-1.98-3.53-4.03-7.02-6.25-10.43-0.74-1.13-2.85-0.43-2.3 0.96 1.94 4.98 4.11 9.85 6.43 14.65-0.5-0.1-1 0.12-1.33 0.5-3.35-7.16-6.5-14.43-9.92-21.52-0.43-0.9-1.89-0.27-1.6 0.68 2.37 8.01 5.16 15.86 8.57 23.4-1.91-0.82-3.82-1.59-5.75-2.33-5.17-5.79-10.26-11.67-15.76-17.22-1.1-1.1-2.72 0.3-2.07 1.61 2.18 4.44 4.96 8.52 8.15 12.31-1.6-0.47-3.2-0.92-4.81-1.31-2.17-0.53-3.36 2.36-1.5 3.57 1.98 1.29 4.01 2.51 6.06 3.7 1.15 2 2.41 3.91 3.79 5.73-8.7-2.72-17.39-5.68-26.24-8.61-1.1-0.37-1.72 1.25-0.77 1.84 10.29 6.38 21.75 10.88 33.65 14.09 1.79 1.67 3.68 3.24 5.64 4.72-0.88 0.09-1.75 0.21-2.62 0.33-12.38-3-24.75-6.01-37.18-8.65-1.51-0.32-2.67 1.9-1.11 2.65 8.09 3.85 16.8 6.8 25.75 8.9-2.14 0.64-4.29 1.34-6.42 2.08-10.58 3.65-21.1 7.27-31.22 12.08-1 0.48-0.28 1.97 0.72 1.73 14.51-3.48 28.92-10.68 43.68-14.48 2.92 0.53 5.86 0.99 8.79 1.35-6.78 1.19-13 4.93-19.02 8.71-10.17 6.39-19.12 13.73-27.11 22.71-0.88 0.99 0.42 2.2 1.42 1.42 6.2-4.79 12.5-9.54 18.9-14.08-0.55 0.71-1.09 1.42-1.58 2.17-0.87 1.31 0.85 2.99 2.15 2.15 1.59-1.02 3.11-2.13 4.6-3.27 3.85-1.43 7.68-2.9 11.5-4.38-7.55 6.98-13.86 14.85-17.27 24.73-0.41 1.2 1.31 1.77 1.96 0.82 5.74-8.42 11.84-16.76 19.26-23.78 1.89-1.79 3.92-3.73 6.08-5.66l0.54-0.21c-0.52 0.69-1.02 1.39-1.51 2.1-13.82 13.65-25.25 30.09-30.66 48.34-0.3 1.02 1.21 1.66 1.73 0.72 6.6-11.94 12.74-24.09 20.98-35.02 0.4-0.53 0.81-1.04 1.21-1.56-0.28 0.7-0.57 1.4-0.83 2.11-0.35 0.97 1.1 1.5 1.62 0.68 2.71-4.32 5.51-8.55 8.46-12.64-3.39 5.09-6.06 10.39-7.51 16.01-1.19 2.94-2.07 6.02-2.54 9.27-0.13 0.85 1.04 1.23 1.32 0.39 0.01 1.33 0.09 2.67 0.25 4.02 0.1 0.87 1.34 0.92 1.38 0 0.27-5.25 1.34-10.38 3.02-15.32 0.21-0.41 0.43-0.82 0.65-1.23 0.04 0.72 0.96 1.23 1.6 0.64 5.22-4.82 9.9-10.33 14.31-16.1-0.6 1.94-1.14 3.92-1.59 5.92-5.65 7.25-10.62 14.99-14.4 23.61-0.26 0.58 0.51 1.07 0.87 0.5 4.22-6.71 8.36-13.51 12.75-20.14-0.49 2.86-0.83 5.76-1.04 8.66-0.17 0.53-0.35 1.05-0.5 1.59-0.11 0.39 0.07 0.7 0.35 0.88-0.06 1.42-0.1 2.84-0.1 4.26-3.76 9.99-6.3 20.25-6.54 30.52-0.03 1.09 1.55 1.26 1.86 0.25 2.49-8.32 4.69-16.66 7.34-24.89-0.03 2.78 0.08 5.56 0.37 8.3 0.06 0.57 1 0.84 1.11 0.15 1.08-6.68 1.73-13.35 2.63-19.99 2.28-5.76 4.75-11.45 7.3-17.11-3.34 11.3-5.39 22.91-4.96 34.84 0.03 0.83 1.16 0.78 1.26 0 1.74-13.49 3.39-27 6.65-40.14 0.23-0.28 0.46-0.57 0.7-0.86 0.45 0.49 0.95 0.72 1.46 0.76 0.02 0.03 0.05 0.05 0.08 0.08-0.54 2.73-1.02 5.46-1.52 8.11-1.73 9.12-2.73 17.98-2.93 27.28-0.02 1.33 2.04 1.64 2.35 0.31 1.61-6.84 2.9-13.64 4.04-20.52 0.04 0.51 0.09 1.02 0.13 1.53 0.22 4.78 0.73 9.52 1.63 14.18 0.04 0.2 0.13 0.35 0.25 0.47 0.52 3.18 1.1 6.36 1.73 9.52 0.18 0.89 1.68 0.7 1.61-0.22-0.47-6.16-1.1-12.3-1.69-18.44-0.01-0.32-0.02-0.64-0.04-0.95 0.41 0.02 0.84-0.25 0.83-0.73-0.15-6.54-0.47-13.11-0.31-19.64 0.05-2.25 0.07-4.65 0.22-7.04 0.41 0.37 1.1 0.38 1.59 0.07 0.14 0.18 0.29 0.34 0.45 0.5 0.26 5.5 1.02 11.09 1.51 16.15 0.73 7.48 1.89 14.63 3.71 21.77 0.71 16.92 1.82 33.83 4.27 50.5 0.13 0.93 1.6 0.68 1.61-0.22 0.03-14.13-0.91-28.3-2.24-42.45 0.44-0.13 0.78-0.48 0.75-1.07-0.57-10.05-1.75-19.84-2.98-29.83-0.08-0.65-0.14-1.31-0.2-1.96 1.93 5.03 4.22 9.9 6.94 14.52 0.13 0.22 0.33 0.29 0.51 0.27 2.16 7.12 4.84 14.09 8.95 20.23 0.61 0.92 1.89 0.47 1.96-0.5 0.64 0.59 1.9 0.13 1.58-0.87-1.26-3.92-2.96-7.72-4.82-11.47-2.21-6.86-4.83-13.63-6.77-20.58-0.16-0.57-0.3-1.14-0.46-1.72 6.85 16.19 12.75 32.74 18.64 49.32 0.27 0.75 1.43 0.45 1.21-0.34-5.16-19.23-12.84-37.61-21.58-55.46-0.29-1.12-0.55-2.24-0.83-3.36 1.27 1.46 2.58 2.9 3.95 4.3 0.7 1.15 1.43 2.28 2.18 3.39 5.95 10.31 13.5 19.64 22.77 26.73 1.19 0.9 2.42-0.97 1.53-1.98-2.72-3.05-5.38-6.08-7.96-9.14 0.12 0.06 0.23 0.14 0.36 0.2 0.59 0.29 1.35-0.51 0.76-0.99-2.2-1.79-4.3-3.62-6.3-5.49-0.86-1.09-1.72-2.18-2.56-3.27 5.79 4.24 12.12 7.65 18.89 9.73 0.95 0.29 1.58-1.15 0.68-1.61-9.14-4.67-17.59-9.59-25.17-15.78-1.81-2.61-3.55-5.28-5.21-8.02 2.37 1.94 4.82 3.78 7.37 5.47 3.23 3.23 6.64 6.26 10.28 8.94 0.81 0.59 1.78-0.71 1.06-1.39-0.72-0.69-1.45-1.38-2.18-2.06 1.16 0.65 2.35 1.28 3.57 1.9 9.18 9.46 18.23 19.03 27.64 28.28 0.65 0.64 1.53-0.3 0.98-0.98-7.05-8.74-14.83-16.93-22.96-24.78 3.75 1.43 7.54 2.34 11.07 2.14 1.45-0.08 1.96-1.9 0.73-2.7-0.82-0.53-1.67-1.03-2.55-1.49 0.55-0.26 0.68-1.04 0.15-1.45 0.49 0.08 0.78-0.68 0.31-0.93-11.85-6.22-23.28-12.23-34.07-19.83 14.28 8.46 32.03 15.42 48.69 13.5 0.83-0.1 1.21-1.44 0.22-1.61-8.28-1.42-16.69-1.97-24.88-3.98-8.88-2.17-17.33-5.62-25.34-10.01 0.22-0.13 0.45-0.26 0.67-0.39 9.34 0.84 18.75 2.02 28.14 2.84 1.93 0.25 3.87 0.48 5.81 0.68 0.17 0.02 0.3-0.08 0.37-0.21 5.38 0.35 10.75 0.54 16.09 0.41 0.96-0.02 1.24-1.51 0.24-1.73-14.01-3.07-28.88-3.43-43.49-3.57l-2.46-0.42c2.76-0.72 5.49-1.51 8.19-2.4 6.96-1.21 14.28-1.49 20.37-2.2 12.3-1.44 24.62-2.55 36.94-3.76 0.71-0.07 0.74-1.14 0-1.13"
            fill="#b232ed"
            ></path>
      </g>
      <g>
         <path
            d="m1.8086 141.61c2.4102 0 2.4141-3.75 0-3.75-2.4102 0-2.4141 3.75 0 3.75zm184.78 100.73c-2.34 4.68-3.46 9.85-4.5 14.95-0.11 0.55 0.66 0.76 0.85 0.23 1.75-4.9 3.46-9.91 3.88-15.12 0.01-0.12-0.18-0.17-0.23-0.06zm-6.72-7.79c-6.09 4.25-12.05 9.65-15.48 16.33-0.19 0.37 0.31 0.64 0.55 0.32 4.57-6.08 8.94-11.84 15.01-16.55 0.05-0.04-0.02-0.13-0.08-0.1zm-0.38-15.77c-4.35-1.68-8.83-3.93-13.41-4.84-0.46-0.1-0.81 0.56-0.34 0.8 4.2 2.13 9.12 3.15 13.61 4.53 0.32 0.09 0.43-0.38 0.14-0.49zm31.89 1.81c2.69-3.43 5.92-6.13 9.56-8.52 0.13-0.08 0.01-0.29-0.13-0.21-3.8 2.1-7 5.14-9.63 8.58-0.08 0.11 0.12 0.26 0.2 0.15zm2.15 10.98c5.67 4.12 12.17 8.01 19.22 8.95 0.46 0.06 0.46-0.59 0.11-0.74-6.56-2.71-13.09-4.69-19.2-8.42-0.14-0.09-0.26 0.12-0.13 0.21zm-7.7-5.71c9.66-1.45 19.28-1.5 28.96-2.45 0.55-0.05 0.57-0.85 0-0.88-9.6-0.62-19.68 1.08-29.13 2.72-0.39 0.07-0.22 0.67 0.17 0.61zm-2.26-4.54c3.04-9.36 11.72-14.82 19.54-19.96 0.4-0.26 0.05-0.88-0.38-0.65-8.77 4.72-17.34 10.23-20.37 20.28-0.24 0.78 0.97 1.1 1.21 0.33zm-3.43 1.95c-1.3-11.63 0.38-22.74 3.2-34.02 0.16-0.66-0.85-1.15-1.15-0.48-4.98 10.97-5.21 22.94-2.42 34.54 0.05 0.21 0.39 0.17 0.37-0.04zm-4.97-0.46c-5.14-3.81-7.06-9.31-9.72-14.85-0.68-1.42-2.76-0.63-2.81 0.76-0.27 7.18 5.97 12.67 12.15 15.01 0.57 0.22 0.8-0.61 0.38-0.92zm-5.13-0.38c-8.69 2.18-17.43 4.32-25.74 7.71-0.66 0.27-0.42 1.29 0.31 1.09 8.66-2.25 17.1-5.3 25.7-7.84 0.62-0.18 0.36-1.12-0.27-0.96zm2.1 6.18c-6.29 3.48-12.57 9-14.58 16.14-0.2 0.74 0.84 1.46 1.37 0.8 4.48-5.66 8.12-11.6 13.59-16.45 0.28-0.24-0.07-0.66-0.38-0.49zm2.16 2.37c-0.98 8.06-1.42 16.67 1.1 24.5 0.17 0.51 1.03 0.45 0.99-0.14-0.44-8.19-1.68-16.12-1.21-24.36 0.03-0.58-0.82-0.55-0.88 0zm10.91-4.51c1.58 10.72 5.53 21.82 13.4 29.55 0.5 0.48 1.4-0.16 0.99-0.77-6.17-9.17-11.51-17.96-13.78-28.95-0.09-0.4-0.67-0.22-0.61 0.17zm-3.66-1.32c-3.59 8.31-2.76 19.84-0.19 28.31 0.21 0.66 1.26 0.56 1.24-0.17-0.14-4.65-0.6-9.31-0.62-13.97-0.02-4.61 0.72-9.41 0.28-13.98-0.03-0.32-0.54-0.57-0.71-0.19zm-29.78-123.56c1.87 0 1.87-2.891 0-2.891-1.86 0-1.86 2.891 0 2.891zm-51.07-24.461c4.13 0 4.14-6.418 0-6.418-4.13 0-4.14 6.418 0 6.418zm30.14 5.98c1.77 0 1.78-2.765 0-2.765-1.79 0-1.79 2.765 0 2.765zm-49.46 32.231c2.67 0 2.67-4.16 0-4.16-2.677 0-2.681 4.16 0 4.16zm-32.607 16.64c0.539 0.25 0.934 0.38 1.504 0.1 0.758-0.38 1.231-1.15 0.993-2.02-0.293-1.06-1.555-1.57-2.497-1.01-1.023 0.59-1.191 2.38 0 2.93zm-21.918 131.48c0.524-0.05 1.094-0.05 1.579-0.25 0.609-0.25 1.078-0.9 1.078-1.57 0-0.59-0.371-1.19-0.871-1.48-0.52-0.3-1.203-0.28-1.786-0.34-0.984-0.1-1.824 0.91-1.824 1.82s0.836 1.93 1.824 1.82zm-2.07 55.85c3.16 0 3.164-4.91 0-4.91-3.16 0-3.164 4.91 0 4.91zm68.325 22.02c2.19 0 2.19-3.4 0-3.4s-2.19 3.4 0 3.4zm17.46 60.1c0.67 0.14 1.25 0.14 1.82-0.25 1.13-0.75 1.13-2.27 0-3.02-0.59-0.39-1.16-0.39-1.82-0.25-1.74 0.38-1.74 3.14 0 3.52zm212.36-306.93c2.51 0 2.52-3.899 0-3.899-2.51 0-2.52 3.899 0 3.899zm-26.91-13.363c0.38-0.024 0.76-0.039 1.14-0.071 1.21-0.09 1.22-1.785 0-1.879-0.38-0.027-0.76-0.046-1.14-0.066-1.3-0.07-1.31 2.086 0 2.016zm48.64 49.209c0.14-0.05 0.28-0.1 0.42-0.15 1.05-0.35 1.05-1.78 0-2.14-0.14-0.04-0.28-0.1-0.42-0.14-0.78-0.27-1.59 0.43-1.59 1.21s0.81 1.48 1.59 1.22zm-10.71 13.51c1.42 0 1.42-2.2 0-2.2s-1.42 2.2 0 2.2zm46.26 19.98c2.92 0 2.92-4.54 0-4.54-2.91 0-2.92 4.54 0 4.54zm-48.31 48.99c11.24 0.33 22.64 1.24 33.82-0.19 0.89-0.11 0.89-1.27 0-1.38-11.18-1.43-22.57-0.52-33.82-0.19-1.13 0.03-1.13 1.73 0 1.76zm-27.91-34.01c0-0.23-0.01-0.46-0.01-0.69 0-0.58-0.48-1.06-1.07-1.07h-0.68c-1.54-0.01-2.33 1.93-1.25 3.01 1.07 1.07 3.01 0.29 3.01-1.25zm52.07 153.6c4.05 0 4.05-6.29 0-6.29s-4.06 6.29 0 6.29zm-69.02-28.48c2.92 0 2.92-4.54 0-4.54-2.91 0-2.92 4.54 0 4.54zm7.59 62.3c1.65 0 3.23-1.45 3.15-3.15s-1.38-3.14-3.15-3.14c-1.64 0-3.22 1.44-3.14 3.14 0.07 1.71 1.38 3.15 3.14 3.15zm-33.81 17c2.83 0 2.84-4.4 0-4.4s-2.84 4.4 0 4.4zm-37.7 63.31c3.48 0 3.49-5.41 0-5.41-3.48 0-3.49 5.41 0 5.41zm-20.97 17.05c-0.14 0.02-0.28 0.03-0.42 0.05-2.03 0.25-2.04 2.92 0 3.17 0.14 0.02 0.28 0.04 0.42 0.05 2.11 0.26 2.11-3.53 0-3.27zm-50.38-43.09c1.94 0 1.95-3.03 0-3.03-1.94 0-1.95 3.03 0 3.03zm-33.36-1.71c-0.41 0.26-0.8 0.53-1.19 0.84-0.84 0.68-0.71 2.14 0 2.85s2.16 0.85 2.85 0c0.31-0.38 0.58-0.78 0.84-1.19 0.97-1.54-0.96-3.47-2.5-2.5zm-39.793 4.34c1.453 0 2.833-1.27 2.773-2.76-0.07-1.5-1.22-2.77-2.773-2.77-1.449 0-2.836 1.27-2.769 2.77 0.066 1.5 1.214 2.76 2.769 2.76zm-28.988-43.79c2.269 0 2.273-3.53 0-3.53-2.266 0-2.27 3.53 0 3.53zm-23.27 2.94c0.371 0.22 0.743 0.44 1.114 0.67 0.961 0.58 1.996-0.19 2.082-1.2 0.039-0.46 0.078-0.92 0.117-1.37 0.148-1.71-1.965-2.69-3.313-1.91-1.441 0.84-1.414 2.96 0 3.81zm19.129-64.62c1.946 0 1.95-3.02 0-3.02-1.941 0-1.945 3.02 0 3.02zm3.453-69.45c3.157 0 3.164-4.91 0-4.91-3.16 0-3.164 4.91 0 4.91zm-40.742-21.54c-0.054-0.04-0.109-0.07-0.164-0.12 0.227 0.3 0.449 0.58 0.672 0.88-0.332-0.83-0.891-1.5-1.867-1.5-1.02 0-1.887 0.86-1.887 1.88 0 1.03 0.863 1.89 1.887 1.89 0.976 0 1.535-0.67 1.867-1.5-0.223 0.29-0.445 0.58-0.672 0.87 0.055-0.04 0.11-0.08 0.164-0.12 0.844-0.61 0.844-1.66 0-2.28zm62.824-48.79c2.352 0 2.356-3.65 0-3.65-2.347 0-2.351 3.65 0 3.65zm43.477-23.78c2.84 0 2.84-4.41 0-4.41-2.83 0-2.84 4.41 0 4.41zm72.47-38.59c2.03 0 2.03-3.14 0-3.14-2.02 0-2.03 3.14 0 3.14zm-25.33-41.766c0.44 1.207 1.49 2.105 2.84 1.785 0.59-0.141 0.96-0.949 0.6-1.48-0.16-0.223-0.01 0.035-0.03 0.187-0.01 0.106-0.44 0.621-0.16 0.367 1.13-0.988 0.5-2.886-0.85-3.261-1.34-0.368-2.93 0.968-2.4 2.402zm28.78 42.456c0.24 0 0.24-0.38 0-0.38s-0.24 0.38 0 0.38zm125.61 20.96c2.35 0 2.35-3.65 0-3.65s-2.35 3.65 0 3.65zm71.43 89.29c1.63 0 3.2-1.44 3.12-3.12-0.07-1.7-1.37-3.13-3.12-3.13-1.64 0-3.2 1.44-3.12 3.13 0.07 1.69 1.37 3.12 3.12 3.12zm-21.1 57c0.83-0.13 1.66-0.32 2.02-1.2 0.36-0.91-0.1-1.71-0.52-2.5-0.97-1.83-3.72-1.49-4.47 0.3-0.36 0.84-0.24 1.78 0.32 2.5 0.67 0.86 1.61 1.06 2.65 0.9zm-176.04-186.57c7.41-21.473 12.21-44.297 17.68-66.336 0.32-1.281-1.49-1.735-1.94-0.535-7.92 21.156-15.15 44.074-17.35 66.656-0.09 0.961 1.33 1.039 1.61 0.215zm125.11 105.4c26.14-2.38 52.23-6.32 77.87-11.97 1.15-0.25 0.92-2.26-0.28-2.1-26.05 3.38-52 7.89-77.69 13.33-0.41 0.09-0.33 0.78 0.1 0.74zm3.34 37.71c5.04-1.02 10.49 2.17 15.11 3.8 4.52 1.59 9.05 3.16 13.57 4.75 8.59 3.01 17.27 6.15 26.13 8.25 2.18 0.51 2.88-2.47 0.9-3.28-10.04-4.1-20.67-6.92-31.07-9.95-7.26-2.12-17.32-7.23-24.91-4.54-0.61 0.22-0.37 1.1 0.27 0.97zm-241.31 8.88c-12.199 7.76-23.961 15.96-35.352 24.87-11.804 9.23-24.14 18.64-34 30-0.828 0.96 0.282 2.73 1.45 1.88 11.285-8.22 21.461-18.01 32.222-26.89 11.899-9.82 24.043-19.42 36.313-28.78 0.625-0.47 0.066-1.53-0.633-1.08zm12.839 68.36c-17.327 33.08-32.534 69.06-38.073 106.24-0.211 1.41 1.734 2.04 2.183 0.61 11.336-35.89 21.621-71.66 37.41-105.97 0.47-1.01-0.98-1.9-1.52-0.88zm138.61 17.51c7.81 22.32 12.76 45.2 18.7 68.03 0.46 1.78 2.9 0.97 2.67-0.74-3.19-23.25-11.29-46-20.16-67.63-0.3-0.73-1.49-0.45-1.21 0.34zm59.14-13.37c8.93 13.08 16.62 26.84 23.65 41.03 0.36 0.73 1.41 0.09 1.08-0.64-6.49-14.45-14.52-28.07-23.53-41.09-0.51-0.73-1.71-0.04-1.2 0.7zm-135.96-172.33c-5.69-18.88-11.23-37.84-17.98-56.366-0.32-0.903-1.72-0.551-1.45 0.402 5.3 19.004 11.85 37.634 18.22 56.294 0.26 0.76 1.45 0.45 1.21-0.33zm76.46 5.39c-0.23 0.32-0.75 0.04-0.54-0.32 13.74-24 34.37-45.16 59.38-57.358 1.3-0.641 2.37 1.156 1.14 1.953-23.42 15.175-43.77 32.835-59.98 55.725"
            fill="#00ffff"
            ></path>
      </g>
   </g>
</svg>
