<svg className="canva-camera" viewBox="-30.6 -19.6 567.2 517.8">
   <filter id="blur">
      <feGaussianBlur stdDeviation="7"></feGaussianBlur>
   </filter>
   <g fill="rgb(178, 0, 237)">
      <path
         d="M121.9,391.7l-23.7,84.7c-0.6,1.9-2.1,3.1-4,3.1c-0.3,0-0.8,0-1.3-0.2 c-2.1-0.7-3.3-2.9-2.8-5.1l23.6-84.5 M121.9,391.7l17.7-63.3v147c0,2.3,1.9,4.2,4.2,4.2s4.2-1.9,4.2-4.2V328.7l15.2,54.7l25.8,93.1 c0.6,1.8,2.1,3,4,3c0.3,0,0.7,0,1.3-0.2c2.1-0.7,3.3-2.9,2.7-5.1l-26.7-95.8h-0.1l-22.9-83H147l-0.3-0.3c-0.3-0.3-0.6-0.6-1-0.8 c-0.2-0.1-0.6-0.3-1.1-0.4c-0.3-0.1-0.5-0.1-0.8-0.1c-0.2,0-0.4,0-0.7,0.1h-0.4l-2.1,1.1v0.3l0,0c-0.2,0.2-0.4,0.5-0.6,0.8 l-0.3,0.6l-26,93"
         filter="url(#blur)"
         fill="rgb(178, 0, 237)"
         ></path>
      <path
         d="M165.1,382.8L146,314v161.4c0,1.2-1,2.2-2.2,2.2s-2.2-1-2.2-2.2V313.8L96.3,475.9c-0.3,1-1.1,1.6-2.1,1.6 c-0.2,0-0.4,0-0.6-0.1c-1.1-0.3-1.8-1.5-1.5-2.7l49.5-177.3l0,0c0.1-0.2,0.2-0.4,0.3-0.6c0,0,0-0.1,0.1-0.1 c0.1-0.2,0.3-0.3,0.5-0.4c0,0,0.1,0,0.1-0.1c0.2-0.1,0.4-0.2,0.6-0.3c0,0,0,0,0.1,0h0.1c0.2-0.1,0.5-0.1,0.7,0l0,0l0,0 c0.2,0,0.5,0.1,0.7,0.2l0,0c0.2,0.1,0.4,0.3,0.5,0.4c0,0,0,0,0.1,0.1c0.1,0.2,0.3,0.4,0.3,0.6v0.1c0,0,0,0.1,0.1,0.1l23.1,83.6 M165.1,382.8l25.8,93.1c0.3,1,1.1,1.6,2.1,1.6c0.2,0,0.4,0,0.6-0.1c1.1-0.3,1.8-1.5,1.5-2.7L169,381.1"
         fill="rgb(178, 0, 237)"
         ></path>
   </g>
   <g fill="rgb(0, 255, 255)">
      <path
         d="M39.1,302.4c-2.3,0-4.2-1.9-4.2-4.2V254H21.7c-8.5,0-15.4-8.2-15.4-18.2 v-18.1c0-10,6.9-18.2,15.4-18.2h13.1v-31.7c0-2.3,1.9-4.2,4.2-4.2s4.2,1.9,4.2,4.2v126.1h167.9c2.2,0,4.1,1.8,4.3,4.1v0.2 c0,2.3-1.9,4.2-4.2,4.2L39.1,302.4L39.1,302.4z M34.9,245.6v-37.8H21.7c-3.8,0-7.1,4.5-7.1,9.8v18.1c0,5.3,3.3,9.8,7.1,9.8h2v0.1 L34.9,245.6L34.9,245.6z M221.3,302.3c-2.3,0-4.2-1.9-4.2-4.2c0-2.3,1.9-4.2,4.2-4.2h11.5c2.3,0,4.2,1.9,4.2,4.2c0,2.3-1.7,4-4,4.2 h-0.1H221.3z M244.5,302.2c-2.3,0-4.2-1.9-4.2-4.2s1.9-4.2,4.2-4.2H288V163.1c0-2.3,1.9-4.2,4.2-4.2s4.2,1.9,4.2,4.2v135.1v0.1 c-0.2,2.2-2,3.9-4.3,3.9H244.5z M362.9,291.3c-1.5,0-3-0.3-4.6-0.9L303.9,268c-2.1-1-3.1-3.2-2.3-5.3l0.1-0.1 c0.7-1.5,2.2-2.5,3.9-2.5c0.5,0,1,0.1,1.5,0.3l54.4,22.3c0.5,0.2,0.9,0.3,1.4,0.3c0.8,0,1.5-0.3,2.3-0.7c1-0.7,1.7-1.9,1.7-3.1v-73 c0-2.3,1.9-4.2,4.2-4.2c2.3,0,4.2,1.9,4.2,4.2v73c0,4-2,7.8-5.4,10.1C367.6,290.6,365.3,291.3,362.9,291.3z M305.5,197.9 c-1.5,0-3-0.9-3.7-2.2v-0.1v-0.1c-0.9-2-0.1-4.5,1.9-5.5l53.9-25.2c1.6-0.8,3.4-1.1,5.1-1.1c2.3,0,4.5,0.6,6.5,1.9 c3.6,2.3,5.6,6.2,5.6,10.3v12.9c0,2.3-1.9,4.2-4.2,4.2c-2.3,0-4.2-1.9-4.2-4.2v-12.9c0-1.3-0.7-2.5-1.8-3.2 c-0.6-0.4-1.3-0.6-2.1-0.6c-0.6,0-1.1,0.1-1.6,0.4l-53.6,25.1C306.9,197.7,306.3,197.9,305.5,197.9z M46.3,162.3 c-2.3,0-4.2-1.9-4.2-4.2s1.9-4.2,4.2-4.2h234.2c2.3,0,4.2,1.9,4.2,4.2s-1.9,4.2-4.2,4.2H46.3z"
         filter="url(#blur)"
         fill="rgb(0, 255, 255)"
         ></path>
      <path
         d="M362.9,289.3c-1.3,0-2.6-0.3-3.9-0.8l-54.3-22.3c-1.1-0.5-1.6-1.7-1.2-2.8c0.5-1.1,1.7-1.6,2.8-1.2 l54.3,22.3c1.8,0.8,3.8,0.5,5.5-0.6c1.6-1.1,2.6-2.9,2.6-4.8v-73c0-1.2,1-2.2,2.2-2.2s2.2,1,2.2,2.2v73c0,3.4-1.7,6.5-4.5,8.4 C366.8,288.7,364.8,289.3,362.9,289.3z M235,298.1c0-1.2-1-2.2-2.2-2.2h-11.5c-1.2,0-2.2,1-2.2,2.2s1,2.2,2.2,2.2h11.5 C234.1,300.2,235,299.3,235,298.1z M292.1,300.2h-47.6c-1.2,0-2.2-1-2.2-2.2s1-2.2,2.2-2.2H290V163.1c0-1.2,1-2.2,2.2-2.2 s2.2,1,2.2,2.2v135C294.3,299.3,293.3,300.2,292.1,300.2z M280.5,160.3H46.3c-1.2,0-2.2-1-2.2-2.2s1-2.2,2.2-2.2h234.2 c1.2,0,2.2,1,2.2,2.2S281.7,160.3,280.5,160.3z M305.5,195.9c-0.8,0-1.6-0.5-2-1.2c-0.5-1.1,0-2.4,1-2.9l53.9-25.2 c3.2-1.5,6.8-1.2,9.7,0.6c2.9,1.9,4.7,5.1,4.7,8.6v12.9c0,1.2-1,2.2-2.2,2.2s-2.2-1-2.2-2.2v-12.9c0-2-1-3.8-2.7-4.9 c-1.7-1.1-3.8-1.2-5.6-0.4l-53.9,25.2C306.2,195.8,305.8,195.9,305.5,195.9z M211.1,295.9H41.2V167.8c0-1.2-1-2.2-2.2-2.2 s-2.2,1-2.2,2.2v33.7H21.7c-7.4,0-13.4,7.2-13.4,16.2v18.1c0,8.9,6,16.2,13.4,16.2h15.2v46.2c0,1.2,1,2.2,2.2,2.2h172.1 c1.2,0,2.2-1,2.2-2.2C213.3,296.9,212.3,295.9,211.1,295.9z M21.7,247.5c-5,0-9.1-5.3-9.1-11.8v-18.1c0-6.5,4.1-11.8,9.1-11.8h15.2 v41.8L21.7,247.5L21.7,247.5z"
         fill="rgb(0, 255, 255)"
         ></path>
   </g>
   <g fill="rgb(253, 247, 103)">
      <path
         d="M464,297l-6-1.2c-2.3-0.6-3.6-2.7-3.3-4.9v-0.1v-0.1 c0.5-1.9,2.1-3.3,4.1-3.3c0.2,0,0.5,0,0.7,0.1l5.9,1.2c2.3,0.6,3.6,2.7,3.3,4.9c-0.4,2-2.1,3.4-4.2,3.4H464z M444.3,292.8 l-49.2-10.4c-2.3-0.6-3.6-2.7-3.3-4.9v-0.1v-0.1c0.5-1.9,2.1-3.3,4.1-3.3c0.2,0,0.5,0,0.7,0.1l49.1,10.4c2.3,0.6,3.6,2.7,3.3,4.9 v0.1v0.1c-0.6,1.8-2.2,3.1-4.1,3.1L444.3,292.8L444.3,292.8z M132.2,254c-0.3,0-0.6,0-0.9-0.1h-9.7c-2.3,0-4.2-1.9-4.2-4.2 s1.9-4.2,4.2-4.2h10.5c0.3,0,0.6,0,0.9,0.1h44.8c2.1,0,4.4-0.6,6.4-1.8c0.6-0.4,1.4-0.6,2.2-0.6c1.4,0,2.8,0.8,3.5,2 c0.6,0.9,0.8,2.1,0.5,3.1c-0.3,1.1-1,2-1.9,2.6c-3.2,1.8-6.8,2.9-10.6,3.1h-0.1H132.2z M100.9,253.8c-11.5,0-20.8-9.3-20.8-20.8 v-16.3c0-11.5,9.3-20.8,20.8-20.8h77c11.5,0,20.8,9.3,20.8,20.8V233c0,2.3-1.9,4.2-4.2,4.2s-4.2-1.9-4.2-4.2v-16.3 c0-6.9-5.6-12.5-12.5-12.5h-77c-6.9,0-12.5,5.6-12.5,12.5V233c0,6.9,5.6,12.5,12.5,12.5c2.3,0,4.2,1.9,4.2,4.2 C105,252,103.2,253.8,100.9,253.8z M242.8,251.7c-5.5,0-9.9-4.4-9.9-9.9s4.4-9.9,9.9-9.9s9.9,4.4,9.9,9.9S248.3,251.7,242.8,251.7z M444.9,232.3c-2.3,0-4.2-1.9-4.2-4.2s1.9-4.2,4.2-4.2h42c2.3,0,4.2,1.9,4.2,4.2s-1.9,4.2-4.2,4.2H444.9z M395.9,232.3 c-2.3,0-4.2-1.9-4.2-4.2s1.9-4.2,4.2-4.2h34.4c2.3,0,4.2,1.9,4.2,4.2s-1.9,4.2-4.2,4.2H395.9z M242.8,221.4c-5.5,0-9.9-4.4-9.9-9.9 s4.4-9.9,9.9-9.9s9.9,4.4,9.9,9.9S248.3,221.4,242.8,221.4z M395.9,187.4c-1.6,0-3-0.9-3.8-2.4c-1-2.2,0-4.7,2.1-5.6l10.1-4.6 c0.5-0.2,1.1-0.4,1.7-0.4c1.6,0,3.1,1,3.8,2.5c1,2.1,0,4.6-2.1,5.5l-10.2,4.6h-0.1C397,187.2,396.5,187.4,395.9,187.4z M416.7,178 c-1.6,0-3-0.9-3.8-2.4c-1-2.2,0-4.7,2.1-5.6l48-21.5c0.5-0.2,1.1-0.4,1.7-0.4c1.6,0,3.1,1,3.8,2.5c0.5,1,0.5,2.2,0.1,3.2 s-1.2,1.9-2.2,2.3l-47.8,21.4C417.9,178,417.2,178,416.7,178z M221.4,162.3c-29.5,0-56.4-17.3-69-43.6 c-3.1,11.3-9.5,21.6-18.6,29.3c-10.8,9.2-24.5,14.3-38.7,14.3c-32.6,0-59.2-26.6-59.2-59.3c0-11.5,3.3-22.6,9.5-32.2 c0.7-1.1,2-1.9,3.5-1.9c0.8,0,1.6,0.2,2.3,0.7c0.9,0.6,1.6,1.5,1.8,2.6c0.2,1.1,0,2.3-0.7,3.2c-5.3,8.2-8.1,17.7-8.1,27.7 c0,28.1,22.8,50.9,50.9,50.9s50.9-22.8,50.9-50.9c0-1.8-0.1-3.7-0.3-5.6l-0.4-2.9c-4.1-24.5-25.2-42.4-50.2-42.4 c-11.7,0-22.7,3.9-31.7,11.2c-0.8,0.6-1.7,0.9-2.6,0.9c-1.3,0-2.5-0.6-3.2-1.5c-0.6-0.8-1-1.9-0.9-3s0.7-2.2,1.5-2.8 c10.5-8.5,23.3-13,36.9-13c20.9,0,40.2,11.2,50.9,28.9c2.6-15.7,9.9-29.8,21.3-41.2l0.1-0.1c0.8-0.7,1.8-1.1,2.9-1.1 c1.1,0,2.2,0.4,2.9,1.2l0.1,0.1c1.5,1.7,1.5,4.3-0.1,5.8c-12.9,12.8-20,29.9-20,48.2c0,1.7,0.1,3.5,0.2,5.5l0.6,5.4 c5.3,33.1,33.7,57.2,67.3,57.2c37.6,0,68.2-30.6,68.2-68.2s-30.6-68.2-68.2-68.2c-8.8,0-17.4,1.6-25.5,4.9c-0.5,0.2-1,0.3-1.5,0.3 c-1.8,0-3.3-1.1-3.9-2.7c-0.8-2.2,0.3-4.6,2.4-5.4c9.1-3.6,18.7-5.4,28.5-5.4c42.2,0,76.5,34.3,76.5,76.5S263.6,162.3,221.4,162.3z M95.2,132c-4.5,0-8.7-1-12.7-2.9c-2-0.9-2.9-3.4-1.9-5.5c0.7-1.5,2.1-2.4,3.7-2.4c0.6,0,1.2,0.1,1.8,0.4c2.9,1.4,6,2.1,9.1,2.1 c11.4,0,20.7-9.3,20.7-20.7s-9.3-20.7-20.7-20.7S74.5,91.6,74.5,103c0,3,0.7,6.1,1.9,8.8c1,2.1,0.1,4.6-2,5.6 c-0.6,0.3-1.2,0.4-1.8,0.4c-1.6,0-3.1-0.9-3.7-2.4c-1.8-3.9-2.8-8.1-2.8-12.3c0-16,13-29,29-29s29,13,29,29S111.1,132,95.2,132z M221.2,121.5c-19.6,0-35.6-16-35.6-35.6s16-35.6,35.6-35.6s35.6,16,35.6,35.6c0,6.2-1.6,12.3-4.6,17.6c-0.7,1.3-2.1,2.1-3.6,2.1 c-0.7,0-1.4-0.2-2-0.5c-0.9-0.5-1.6-1.4-2-2.4c-0.3-1.1-0.2-2.3,0.4-3.2c2.3-3.9,3.5-8.6,3.5-13.4c0-15-12.2-27.2-27.2-27.2 S194.1,71,194.1,86s12.2,27.2,27.2,27.2c5.9,0,11.6-1.9,16.4-5.5c0.7-0.5,1.6-0.8,2.5-0.8c1.3,0,2.5,0.6,3.3,1.7 c0.7,0.9,1,2,0.8,3.1s-0.8,2.1-1.7,2.7C236.6,118.9,229.2,121.4,221.2,121.5L221.2,121.5L221.2,121.5z"
         filter="url(#blur)"
         fill="rgb(253, 247, 103)"
         ></path>
      <path
         d="M246.7,100.4c2.5-4.3,3.8-9.3,3.8-14.4c0-16.1-13.1-29.2-29.2-29.2S192.1,69.9,192.1,86 s13.1,29.2,29.2,29.2c6.4,0,12.5-2.1,17.6-5.9c0.9-0.7,2.3-0.6,3,0.4c0.7,0.9,0.6,2.3-0.4,3c-5.8,4.4-12.8,6.7-20.3,6.8 c-18.5,0-33.6-15.1-33.6-33.6s15.1-33.6,33.6-33.6s33.6,15.1,33.6,33.6c0,5.8-1.5,11.6-4.4,16.6c-0.5,1-1.9,1.4-2.9,0.8 C246.5,102.8,246.1,101.4,246.7,100.4z M185.2,245.5c-2.2,1.3-4.8,2.1-7.4,2.1h-45.1c-0.2-0.1-0.4-0.1-0.6-0.1h-10.5 c-1.2,0-2.2,1-2.2,2.2s1,2.2,2.2,2.2h10c0.2,0.1,0.4,0.1,0.6,0.1h45.6c3.4-0.2,6.7-1.1,9.7-2.8c1-0.6,1.4-1.9,0.7-3 C187.6,245.2,186.3,244.8,185.2,245.5z M177.9,197.9h-77c-10.4,0-18.8,8.4-18.8,18.8V233c0,10.4,8.4,18.8,18.8,18.8 c1.1,0,2.1-0.9,2.1-2.1s-1-2.2-2.2-2.2c-8,0-14.5-6.5-14.5-14.5v-16.3c0-8,6.5-14.5,14.5-14.5h77c8,0,14.5,6.5,14.5,14.5V233 c0,1.2,1,2.2,2.2,2.2s2.2-1,2.2-2.2v-16.3C196.7,206.3,188.3,197.9,177.9,197.9z M242.8,233.9c-4.3,0-7.9,3.5-7.9,7.9 c0,4.3,3.5,7.9,7.9,7.9c4.3,0,7.9-3.5,7.9-7.9C250.7,237.5,247.2,233.9,242.8,233.9z M416.7,176c0.4,0,0.7,0,0.9-0.2l48-21.5 c1.1-0.5,1.6-1.8,1.1-2.9c-0.5-1.1-1.8-1.6-2.9-1.1l-48,21.5c-1.1,0.5-1.6,1.8-1.1,2.9C415.1,175.5,415.8,176,416.7,176z M395.9,185.4c0.3,0,0.6-0.1,0.9-0.2l10.1-4.6c1.1-0.5,1.6-1.8,1.1-2.9c-0.5-1.1-1.8-1.6-2.9-1.1l-10.1,4.6 c-1.1,0.5-1.6,1.8-1.1,2.9C394.3,184.9,395,185.4,395.9,185.4z M465.1,290.7l-5.8-1.2c-1.2-0.2-2.3,0.5-2.6,1.7 c-0.2,1.2,0.5,2.3,1.7,2.6l5.8,1.2c0.2,0,0.3,0,0.4,0c1.1,0,2-0.7,2.2-1.7C467,292.1,466.3,291,465.1,290.7z M445.4,286.5l-49-10.4 c-1.2-0.2-2.3,0.5-2.6,1.7c-0.2,1.2,0.5,2.3,1.7,2.6l49,10.4c0.2,0,0.3,0,0.4,0c1,0,1.9-0.7,2.2-1.7 C447.3,287.9,446.6,286.8,445.4,286.5z M395.9,230.3h34.4c1.2,0,2.2-1,2.2-2.2s-1-2.2-2.2-2.2h-34.4c-1.2,0-2.2,1-2.2,2.2 C393.7,229.3,394.7,230.3,395.9,230.3z M486.9,225.9h-28h-14c-1.2,0-2.2,1-2.2,2.2s1,2.2,2.2,2.2h14h28c1.2,0,2.2-1,2.2-2.2 S488.1,225.9,486.9,225.9z M242.8,203.6c-4.3,0-7.9,3.5-7.9,7.9c0,4.3,3.5,7.9,7.9,7.9c4.3,0,7.9-3.5,7.9-7.9 C250.7,207.1,247.2,203.6,242.8,203.6z M221.4,11.3c-9.6,0-18.9,1.8-27.8,5.3c-1.1,0.4-1.6,1.7-1.2,2.8c0.4,1.1,1.7,1.6,2.8,1.2 c8.3-3.3,17.1-5,26.2-5c38.7,0,70.2,31.5,70.2,70.2S260.1,156,221.4,156c-34.9,0-63.9-25.6-69.3-59l-0.7-5.5 c-0.2-1.9-0.3-3.8-0.3-5.7c0-18.8,7.3-36.4,20.6-49.6c0.8-0.8,0.8-2.2,0-3.1c-0.8-0.8-2.2-0.8-3.1,0c-12.6,12.6-20,28.8-21.5,46.3 l0,0C138,59.7,118.1,46,95,46c-13,0-25.4,4.3-35.6,12.5c-0.9,0.7-1,2.1-0.3,3s2.1,1,3,0.3c9.4-7.6,20.9-11.6,33-11.6 c26.2,0,48,19.1,52.2,44.1l0.4,3c0.2,1.9,0.3,3.8,0.3,5.8c0,29.2-23.7,52.9-52.9,52.9s-52.9-23.7-52.9-52.9 c0-10.3,2.9-20.2,8.5-28.8c0.7-1,0.4-2.4-0.6-3c-1-0.7-2.4-0.4-3,0.6c-6,9.2-9.2,20-9.2,31.1c0,31.6,25.6,57.3,57.2,57.3 c28.5,0,52.3-20.8,56.6-48.1l0,0l0,0c10.7,28.1,37.9,48.2,69.7,48.2c41.1,0,74.5-33.4,74.5-74.5S262.5,11.3,221.4,11.3z M95.2,125.7c-3.5,0-6.8-0.8-9.9-2.3c-1.1-0.5-2.4-0.1-2.9,1s-0.1,2.4,1,2.9c3.7,1.8,7.7,2.7,11.8,2.7c14.8,0,26.9-12.1,26.9-27 s-12.1-27-27-27s-27,12.1-27,27c0,4,0.9,7.9,2.6,11.5c0.5,1.1,1.8,1.5,2.9,1s1.5-1.8,1-2.9c-1.4-3-2.1-6.3-2.1-9.6 c0-12.5,10.2-22.7,22.7-22.7s22.7,10.2,22.7,22.7S107.7,125.7,95.2,125.7z"
         fill="rgb(253, 247, 103)"
         ></path>
   </g>
</svg>
